<?xml version="1.0" standalone="no"?>
<!DOCTYPE svg PUBLIC "-//W3C//DTD SVG 20010904//EN"
 "http://www.w3.org/TR/2001/REC-SVG-20010904/DTD/svg10.dtd">
<svg version="1.0" xmlns="http://www.w3.org/2000/svg"
 width="2048.000000pt" height="2048.000000pt" viewBox="0 0 2048.000000 2048.000000"
 preserveAspectRatio="xMidYMid meet">
<metadata>
Created by potrace 1.16, written by Peter Selinger 2001-2019
</metadata>
<g transform="translate(0.000000,2048.000000) scale(0.100000,-0.100000)"
fill="#000000" stroke="none">
<path d="M8653 16113 l-1023 -3 0 -468 0 -467 149 -127 148 -127 1474 9 c811
5 1888 10 2394 12 l920 3 57 -29 c61 -31 101 -77 119 -137 12 -42 29 -6553 18
-7174 -8 -449 -17 -553 -75 -810 -311 -1393 -1441 -2461 -2839 -2684 -206 -32
-322 -41 -555 -41 -233 0 -349 9 -555 41 -969 155 -1848 737 -2363 1566 l-68
110 -25 -17 c-323 -228 -905 -655 -907 -665 -6 -28 227 -352 396 -550 102
-119 341 -360 467 -469 407 -354 920 -655 1435 -842 673 -244 1359 -324 2115
-248 88 8 162 17 165 19 4 2 62 13 131 25 470 79 977 257 1419 498 401 219
754 484 1085 816 521 522 897 1132 1131 1836 77 231 144 512 190 800 20 122
28 791 54 4545 11 1557 22 2968 25 3136 3 183 1 339 -5 390 -43 343 -228 665
-500 869 -71 54 -237 134 -318 155 -35 9 -109 20 -165 25 -93 9 -1765 9 -4494
3z"/>
</g>
</svg>
